<svg width="93" height="34" viewBox="0 0 93 34" fill="none" xmlns="http://www.w3.org/2000/svg">
<path d="M35.746 17.14C34.4953 17.14 33.5433 16.804 32.89 16.132C32.246 15.46 31.9007 14.5313 31.854 13.346C31.8447 13.094 31.84 12.6833 31.84 12.114C31.84 11.5353 31.8447 11.1153 31.854 10.854C31.9007 9.678 32.2507 8.754 32.904 8.082C33.5573 7.40067 34.5047 7.06 35.746 7.06C36.5767 7.06 37.2813 7.20933 37.86 7.508C38.4387 7.79733 38.8773 8.18 39.176 8.656C39.4747 9.132 39.638 9.64067 39.666 10.182V10.21C39.666 10.2847 39.6333 10.35 39.568 10.406C39.512 10.4527 39.4467 10.476 39.372 10.476H38.602C38.4153 10.476 38.2987 10.3687 38.252 10.154C38.0933 9.454 37.8087 8.964 37.398 8.684C36.9873 8.39467 36.4367 8.25 35.746 8.25C34.1407 8.25 33.31 9.14133 33.254 10.924C33.2447 11.176 33.24 11.5633 33.24 12.086C33.24 12.6087 33.2447 13.0053 33.254 13.276C33.31 15.0587 34.1407 15.95 35.746 15.95C36.4367 15.95 36.9873 15.81 37.398 15.53C37.818 15.2407 38.1027 14.746 38.252 14.046C38.28 13.9247 38.322 13.8407 38.378 13.794C38.434 13.7473 38.5087 13.724 38.602 13.724H39.372C39.456 13.724 39.526 13.752 39.582 13.808C39.6473 13.8547 39.6753 13.92 39.666 14.004C39.638 14.5547 39.4747 15.068 39.176 15.544C38.8773 16.02 38.4387 16.4073 37.86 16.706C37.2813 16.9953 36.5767 17.14 35.746 17.14ZM45.0702 17.14C43.8476 17.14 42.9002 16.8227 42.2282 16.188C41.5656 15.544 41.2156 14.578 41.1782 13.29C41.1689 13.01 41.1642 12.6133 41.1642 12.1C41.1642 11.5867 41.1689 11.1947 41.1782 10.924C41.2156 9.664 41.5796 8.70733 42.2702 8.054C42.9609 7.39133 43.8942 7.06 45.0702 7.06C46.2369 7.06 47.1656 7.39133 47.8562 8.054C48.5469 8.70733 48.9109 9.664 48.9482 10.924C48.9669 11.4653 48.9762 11.8573 48.9762 12.1C48.9762 12.3333 48.9669 12.73 48.9482 13.29C48.9109 14.578 48.5562 15.544 47.8842 16.188C47.2216 16.8227 46.2836 17.14 45.0702 17.14ZM45.0702 15.95C45.8076 15.95 46.3956 15.726 46.8342 15.278C47.2729 14.83 47.5109 14.144 47.5482 13.22C47.5669 12.66 47.5762 12.2867 47.5762 12.1C47.5762 11.8947 47.5669 11.5213 47.5482 10.98C47.5109 10.056 47.2682 9.37 46.8202 8.922C46.3816 8.474 45.7982 8.25 45.0702 8.25C44.3329 8.25 43.7402 8.474 43.2922 8.922C42.8536 9.37 42.6156 10.056 42.5782 10.98C42.5689 11.2507 42.5642 11.624 42.5642 12.1C42.5642 12.5667 42.5689 12.94 42.5782 13.22C42.6156 14.144 42.8536 14.83 43.2922 15.278C43.7402 15.726 44.3329 15.95 45.0702 15.95ZM53.6554 17C53.4034 17 53.2307 16.8787 53.1374 16.636L50.0154 7.634L49.9874 7.48C49.9874 7.40533 50.0154 7.34 50.0714 7.284C50.1274 7.228 50.1927 7.2 50.2674 7.2H50.9954C51.1727 7.2 51.2987 7.284 51.3734 7.452L54.1034 15.39L56.8474 7.452C56.8661 7.396 56.9081 7.34 56.9734 7.284C57.0387 7.228 57.1181 7.2 57.2114 7.2H57.9394C58.0141 7.2 58.0794 7.228 58.1354 7.284C58.2007 7.34 58.2334 7.40533 58.2334 7.48L58.2054 7.634L55.0694 16.636C54.9761 16.8787 54.8081 17 54.5654 17H53.6554ZM60.2392 17C60.1459 17 60.0666 16.972 60.0012 16.916C59.9452 16.8507 59.9172 16.7713 59.9172 16.678V7.522C59.9172 7.42867 59.9452 7.354 60.0012 7.298C60.0666 7.23267 60.1459 7.2 60.2392 7.2H60.9812C61.0746 7.2 61.1492 7.23267 61.2052 7.298C61.2706 7.354 61.3032 7.42867 61.3032 7.522V16.678C61.3032 16.7713 61.2706 16.8507 61.2052 16.916C61.1492 16.972 61.0746 17 60.9812 17H60.2392ZM64.0673 17C63.974 17 63.8947 16.972 63.8293 16.916C63.7733 16.8507 63.7453 16.7713 63.7453 16.678V7.536C63.7453 7.43333 63.7733 7.354 63.8293 7.298C63.8947 7.23267 63.974 7.2 64.0673 7.2H67.2453C68.6547 7.2 69.672 7.51733 70.2973 8.152C70.9227 8.77733 71.2493 9.72467 71.2773 10.994C71.2867 11.2647 71.2913 11.6287 71.2913 12.086C71.2913 12.5433 71.2867 12.912 71.2773 13.192C71.2493 14.0787 71.1 14.802 70.8293 15.362C70.568 15.9127 70.1527 16.3233 69.5833 16.594C69.014 16.8647 68.258 17 67.3153 17H64.0673ZM67.2453 15.81C67.8893 15.81 68.398 15.7213 68.7713 15.544C69.154 15.3667 69.4293 15.0867 69.5973 14.704C69.7747 14.312 69.8727 13.7893 69.8913 13.136C69.91 12.576 69.9193 12.226 69.9193 12.086C69.9193 11.9367 69.91 11.5913 69.8913 11.05C69.8727 10.126 69.6533 9.454 69.2333 9.034C68.8133 8.60467 68.1273 8.39 67.1753 8.39H65.1173V15.81H67.2453ZM73.4677 13.388C73.3744 13.388 73.295 13.36 73.2297 13.304C73.1737 13.2387 73.1457 13.1593 73.1457 13.066V12.534C73.1457 12.4407 73.1737 12.366 73.2297 12.31C73.295 12.2447 73.3744 12.212 73.4677 12.212H77.6677C77.761 12.212 77.8357 12.2447 77.8917 12.31C77.957 12.366 77.9897 12.4407 77.9897 12.534V13.066C77.9897 13.1593 77.957 13.2387 77.8917 13.304C77.8357 13.36 77.761 13.388 77.6677 13.388H73.4677ZM82.3054 17C82.2121 17 82.1327 16.972 82.0674 16.916C82.0114 16.8507 81.9834 16.7713 81.9834 16.678V8.838L79.6594 10.63C79.5941 10.686 79.5241 10.714 79.4494 10.714C79.3654 10.714 79.2861 10.6673 79.2114 10.574L78.8474 10.112C78.8007 10.0467 78.7774 9.98133 78.7774 9.916C78.7774 9.804 78.8241 9.71533 78.9174 9.65L81.9694 7.298C82.0721 7.23267 82.1934 7.2 82.3334 7.2H83.0474C83.1407 7.2 83.2154 7.23267 83.2714 7.298C83.3367 7.354 83.3694 7.42867 83.3694 7.522V16.678C83.3694 16.7713 83.3367 16.8507 83.2714 16.916C83.2154 16.972 83.1407 17 83.0474 17H82.3054ZM87.1317 17C87.0477 17 86.9777 16.972 86.9217 16.916C86.875 16.8507 86.8517 16.776 86.8517 16.692C86.8517 16.6267 86.8704 16.566 86.9077 16.51L89.0497 13.528C88.8257 13.584 88.5737 13.612 88.2937 13.612C87.631 13.6027 87.043 13.4487 86.5297 13.15C86.0257 12.8513 85.6384 12.4547 85.3677 11.96C85.097 11.4653 84.9617 10.938 84.9617 10.378C84.9617 9.818 85.0924 9.286 85.3537 8.782C85.6244 8.26867 86.0257 7.85333 86.5577 7.536C87.0897 7.21867 87.7337 7.06 88.4897 7.06C89.2457 7.06 89.8897 7.214 90.4217 7.522C90.963 7.83 91.369 8.236 91.6397 8.74C91.9104 9.244 92.0457 9.78067 92.0457 10.35C92.0457 10.854 91.957 11.302 91.7797 11.694C91.6024 12.0767 91.355 12.4967 91.0377 12.954L88.3357 16.72C88.2704 16.804 88.205 16.874 88.1397 16.93C88.0837 16.9767 87.9997 17 87.8877 17H87.1317ZM88.4897 12.478C88.8817 12.478 89.241 12.394 89.5677 12.226C89.9037 12.0487 90.1697 11.8013 90.3657 11.484C90.5617 11.1573 90.6597 10.784 90.6597 10.364C90.6597 9.944 90.5617 9.57533 90.3657 9.258C90.1697 8.93133 89.9037 8.684 89.5677 8.516C89.241 8.33867 88.8817 8.25 88.4897 8.25C88.0977 8.25 87.7384 8.33867 87.4117 8.516C87.085 8.684 86.8237 8.93133 86.6277 9.258C86.441 9.57533 86.3477 9.944 86.3477 10.364C86.3477 10.784 86.441 11.1573 86.6277 11.484C86.8237 11.8013 87.085 12.0487 87.4117 12.226C87.7384 12.394 88.0977 12.478 88.4897 12.478Z" fill="#FE4F60"/>
<path d="M34.682 30C34.5887 30 34.5093 29.972 34.444 29.916C34.388 29.8507 34.36 29.7713 34.36 29.678V21.446H31.672C31.5787 21.446 31.4993 21.418 31.434 21.362C31.378 21.2967 31.35 21.2173 31.35 21.124V20.536C31.35 20.4427 31.378 20.3633 31.434 20.298C31.4993 20.2327 31.5787 20.2 31.672 20.2H38.42C38.5227 20.2 38.602 20.2327 38.658 20.298C38.7233 20.354 38.756 20.4333 38.756 20.536V21.124C38.756 21.2173 38.7233 21.2967 38.658 21.362C38.5927 21.418 38.5133 21.446 38.42 21.446H35.746V29.678C35.746 29.7713 35.7133 29.8507 35.648 29.916C35.5827 29.972 35.5033 30 35.41 30H34.682ZM40.6474 30C40.5541 30 40.4748 29.972 40.4094 29.916C40.3534 29.8507 40.3254 29.7713 40.3254 29.678V20.536C40.3254 20.4333 40.3534 20.354 40.4094 20.298C40.4748 20.2327 40.5541 20.2 40.6474 20.2H44.0634C45.1368 20.2 45.9768 20.452 46.5834 20.956C47.1901 21.46 47.4934 22.188 47.4934 23.14C47.4934 23.8493 47.3161 24.4327 46.9614 24.89C46.6161 25.3473 46.1261 25.6647 45.4914 25.842L47.6474 29.566C47.6754 29.622 47.6894 29.6733 47.6894 29.72C47.6894 29.7947 47.6568 29.86 47.5914 29.916C47.5354 29.972 47.4701 30 47.3954 30H46.7234C46.5834 30 46.4714 29.9673 46.3874 29.902C46.3128 29.8367 46.2428 29.7433 46.1774 29.622L44.1474 26.066H41.6974V29.678C41.6974 29.7713 41.6648 29.8507 41.5994 29.916C41.5341 29.972 41.4548 30 41.3614 30H40.6474ZM44.0074 24.876C45.3981 24.876 46.0934 24.2927 46.0934 23.126C46.0934 21.9593 45.3981 21.376 44.0074 21.376H41.6974V24.876H44.0074ZM48.8413 30C48.7666 30 48.7013 29.972 48.6453 29.916C48.5893 29.86 48.5613 29.7947 48.5613 29.72C48.5613 29.6453 48.5659 29.594 48.5753 29.566L52.0473 20.508C52.1219 20.3027 52.2713 20.2 52.4953 20.2H53.4473C53.6713 20.2 53.8206 20.3027 53.8953 20.508L57.3533 29.566L57.3813 29.72C57.3813 29.7947 57.3533 29.86 57.2973 29.916C57.2413 29.972 57.1759 30 57.1013 30H56.3873C56.2846 30 56.2053 29.9767 56.1493 29.93C56.0933 29.874 56.0559 29.818 56.0373 29.762L55.2673 27.774H50.6753L49.9053 29.762C49.8866 29.818 49.8446 29.874 49.7793 29.93C49.7233 29.9767 49.6486 30 49.5553 30H48.8413ZM54.8613 26.57L52.9713 21.6L51.0813 26.57H54.8613ZM62.2284 30.14C60.9778 30.14 60.0258 29.804 59.3724 29.132C58.7284 28.46 58.3831 27.5313 58.3364 26.346C58.3271 26.094 58.3224 25.6833 58.3224 25.114C58.3224 24.5353 58.3271 24.1153 58.3364 23.854C58.3831 22.678 58.7331 21.754 59.3864 21.082C60.0398 20.4007 60.9871 20.06 62.2284 20.06C63.0591 20.06 63.7638 20.2093 64.3424 20.508C64.9211 20.7973 65.3598 21.18 65.6584 21.656C65.9571 22.132 66.1204 22.6407 66.1484 23.182V23.21C66.1484 23.2847 66.1158 23.35 66.0504 23.406C65.9944 23.4527 65.9291 23.476 65.8544 23.476H65.0844C64.8978 23.476 64.7811 23.3687 64.7344 23.154C64.5758 22.454 64.2911 21.964 63.8804 21.684C63.4698 21.3947 62.9191 21.25 62.2284 21.25C60.6231 21.25 59.7924 22.1413 59.7364 23.924C59.7271 24.176 59.7224 24.5633 59.7224 25.086C59.7224 25.6087 59.7271 26.0053 59.7364 26.276C59.7924 28.0587 60.6231 28.95 62.2284 28.95C62.9191 28.95 63.4698 28.81 63.8804 28.53C64.3004 28.2407 64.5851 27.746 64.7344 27.046C64.7624 26.9247 64.8044 26.8407 64.8604 26.794C64.9164 26.7473 64.9911 26.724 65.0844 26.724H65.8544C65.9384 26.724 66.0084 26.752 66.0644 26.808C66.1298 26.8547 66.1578 26.92 66.1484 27.004C66.1204 27.5547 65.9571 28.068 65.6584 28.544C65.3598 29.02 64.9211 29.4073 64.3424 29.706C63.7638 29.9953 63.0591 30.14 62.2284 30.14ZM68.3466 30C68.2533 30 68.174 29.972 68.1086 29.916C68.0526 29.8507 68.0246 29.7713 68.0246 29.678V20.536C68.0246 20.4333 68.0526 20.354 68.1086 20.298C68.174 20.2327 68.2533 20.2 68.3466 20.2H69.0466C69.1493 20.2 69.2286 20.2327 69.2846 20.298C69.35 20.354 69.3826 20.4333 69.3826 20.536V24.008L73.1206 20.424C73.27 20.2747 73.452 20.2 73.6666 20.2H74.4226C74.4973 20.2 74.5626 20.228 74.6186 20.284C74.6746 20.34 74.7026 20.4053 74.7026 20.48C74.7026 20.5547 74.684 20.6153 74.6466 20.662L70.3206 24.89L74.9266 29.524C74.9733 29.58 74.9966 29.6453 74.9966 29.72C74.9966 29.7947 74.9686 29.86 74.9126 29.916C74.8566 29.972 74.7913 30 74.7166 30H73.9326C73.7273 30 73.5453 29.9207 73.3866 29.762L69.3826 25.828V29.678C69.3826 29.7713 69.35 29.8507 69.2846 29.916C69.2193 29.972 69.14 30 69.0466 30H68.3466ZM76.7548 30C76.6615 30 76.5822 29.972 76.5168 29.916C76.4608 29.8507 76.4328 29.7713 76.4328 29.678V20.536C76.4328 20.4333 76.4608 20.354 76.5168 20.298C76.5822 20.2327 76.6615 20.2 76.7548 20.2H82.5368C82.6302 20.2 82.7048 20.2327 82.7608 20.298C82.8262 20.354 82.8588 20.4333 82.8588 20.536V21.068C82.8588 21.1613 82.8308 21.2407 82.7748 21.306C82.7188 21.362 82.6395 21.39 82.5368 21.39H77.7768V24.456H82.2288C82.3222 24.456 82.3968 24.4887 82.4528 24.554C82.5182 24.61 82.5508 24.6893 82.5508 24.792V25.31C82.5508 25.4033 82.5182 25.4827 82.4528 25.548C82.3968 25.604 82.3222 25.632 82.2288 25.632H77.7768V28.81H82.6488C82.7515 28.81 82.8308 28.838 82.8868 28.894C82.9428 28.95 82.9708 29.0293 82.9708 29.132V29.678C82.9708 29.7713 82.9382 29.8507 82.8728 29.916C82.8168 29.972 82.7422 30 82.6488 30H76.7548ZM85.2451 30C85.1517 30 85.0724 29.972 85.0071 29.916C84.9511 29.8507 84.9231 29.7713 84.9231 29.678V20.536C84.9231 20.4333 84.9511 20.354 85.0071 20.298C85.0724 20.2327 85.1517 20.2 85.2451 20.2H88.6611C89.7344 20.2 90.5744 20.452 91.1811 20.956C91.7877 21.46 92.0911 22.188 92.0911 23.14C92.0911 23.8493 91.9137 24.4327 91.5591 24.89C91.2137 25.3473 90.7237 25.6647 90.0891 25.842L92.2451 29.566C92.2731 29.622 92.2871 29.6733 92.2871 29.72C92.2871 29.7947 92.2544 29.86 92.1891 29.916C92.1331 29.972 92.0677 30 91.9931 30H91.3211C91.1811 30 91.0691 29.9673 90.9851 29.902C90.9104 29.8367 90.8404 29.7433 90.7751 29.622L88.7451 26.066H86.2951V29.678C86.2951 29.7713 86.2624 29.8507 86.1971 29.916C86.1317 29.972 86.0524 30 85.9591 30H85.2451ZM88.6051 24.876C89.9957 24.876 90.6911 24.2927 90.6911 23.126C90.6911 21.9593 89.9957 21.376 88.6051 21.376H86.2951V24.876H88.6051Z" fill="#FE4F60"/>
<g clip-path="url(#clip0)">
<path d="M22.5409 30.6085L18.1055 26.8883C17.9237 26.7357 17.9026 26.4678 18.0585 26.2899C18.2144 26.1119 18.4882 26.0913 18.6701 26.2438L23.1054 29.9641C23.2872 30.1166 23.3083 30.3845 23.1525 30.5625C22.9966 30.7403 22.7229 30.7611 22.5409 30.6085Z" fill="#E84857"/>
<path d="M19.9669 19.6024C19.9003 19.3773 20.0329 19.142 20.2629 19.0768L23.3045 18.2153C23.5345 18.1501 23.7752 18.2799 23.8417 18.505C23.9084 18.7301 23.7758 18.9655 23.5457 19.0307L20.5041 19.8921C20.2743 19.9572 20.0336 19.8277 19.9669 19.6024Z" fill="#E84857"/>
<path d="M2.00631 28.7922C1.57592 28.7922 1.4077 28.2404 1.77082 28.0112L5.31677 25.7726C5.518 25.6455 5.78646 25.7022 5.91635 25.8992C6.04619 26.0961 5.98829 26.3588 5.787 26.4858C1.92825 28.9218 2.18586 28.7922 2.00631 28.7922V28.7922Z" fill="#E84857"/>
<path d="M21.5763 21.6924C21.5763 27.7156 15.4902 32.0106 9.62151 30.0122C3.77523 28.0246 1.664 20.9374 5.54965 16.1911C7.19878 14.1763 9.73373 12.8861 12.5772 12.8861C17.5506 12.8861 21.5763 16.8317 21.5763 21.6924V21.6924Z" fill="#FE4F60"/>
<path d="M15.8298 25.9364C17.5364 25.9364 18.9199 24.5826 18.9199 22.9126C18.9199 21.2426 17.5364 19.8887 15.8298 19.8887C14.1232 19.8887 12.7397 21.2426 12.7397 22.9126C12.7397 24.5826 14.1232 25.9364 15.8298 25.9364Z" fill="#E84857"/>
<path d="M8.40299 24.398C9.33115 24.398 10.0836 23.6617 10.0836 22.7534C10.0836 21.8452 9.33115 21.1089 8.40299 21.1089C7.47483 21.1089 6.72241 21.8452 6.72241 22.7534C6.72241 23.6617 7.47483 24.398 8.40299 24.398Z" fill="#E84857"/>
<path d="M8.6096 32.8624C8.38337 32.7855 8.26367 32.5437 8.34223 32.3223L10.0397 27.5429C10.1183 27.3215 10.3655 27.2044 10.5917 27.2814C10.8179 27.3584 10.9376 27.6002 10.8589 27.8217L9.16159 32.6008C9.08298 32.8222 8.83583 32.9394 8.6096 32.8624V32.8624Z" fill="#E84857"/>
<path d="M17.4182 17.5438C17.2098 17.4282 17.1366 17.1692 17.2547 16.9653L19.6922 12.7559C19.8103 12.552 20.0749 12.4803 20.2833 12.5959C20.4917 12.7114 20.5649 12.9704 20.4468 13.1744L18.0094 17.3838C17.8913 17.5876 17.6267 17.6594 17.4182 17.5438V17.5438Z" fill="#E84857"/>
<path d="M23.9888 19.5704C24.6325 19.5704 25.1544 19.0597 25.1544 18.4298C25.1544 17.7999 24.6325 17.2892 23.9888 17.2892C23.3451 17.2892 22.8232 17.7999 22.8232 18.4298C22.8232 19.0597 23.3451 19.5704 23.9888 19.5704Z" fill="#FF6D7A"/>
<path d="M25.1543 30.9231C25.1543 31.773 24.4507 32.4616 23.5822 32.4616C22.2302 32.4616 21.523 30.9053 22.389 29.9221C23.3289 28.8462 25.1543 29.4911 25.1543 30.9231Z" fill="#FF6D7A"/>
<path d="M20.7548 10.016C21.6232 10.016 22.3269 10.7046 22.3269 11.5544C22.3269 12.7412 21.0147 13.4692 19.9801 12.8934V12.8929C19.5036 12.6292 19.1826 12.1284 19.1826 11.5544C19.1826 10.7046 19.8863 10.016 20.7548 10.016V10.016Z" fill="#FF6D7A"/>
<path d="M8.647 34C9.29072 34 9.81255 33.4894 9.81255 32.8595C9.81255 32.2295 9.29072 31.7189 8.647 31.7189C8.00328 31.7189 7.48145 32.2295 7.48145 32.8595C7.48145 33.4894 8.00328 34 8.647 34Z" fill="#FF6D7A"/>
<path d="M1.57215 30.1804C2.44042 30.1804 3.1443 29.4916 3.1443 28.642C3.1443 27.7923 2.44042 27.1035 1.57215 27.1035C0.703875 27.1035 0 27.7923 0 28.642C0 29.4916 0.703875 30.1804 1.57215 30.1804Z" fill="#FF6D7A"/>
<path d="M12.0138 12.9034C13.5717 12.8089 14.0007 14.9658 12.5152 15.4351C9.10861 16.5113 6.65546 19.4852 6.32574 23.0075C6.1836 24.526 3.93738 24.5811 3.69163 23.0754C2.85216 17.9313 6.73027 13.2238 12.0138 12.9034V12.9034Z" fill="#FF6D7A"/>
<path d="M8.13909 18.7612L2.26067 14.1593C2.07364 14.0129 2.04333 13.7458 2.19296 13.5628C2.34264 13.3797 2.61559 13.3501 2.80257 13.4965L8.68088 18.0984C8.86792 18.2448 8.89827 18.5118 8.74865 18.6949C8.59902 18.878 8.32607 18.9077 8.13909 18.7612Z" fill="#E84857"/>
<path d="M3.2331 14.3774C2.31518 15.5027 0.433594 14.8758 0.433594 13.4166C0.433594 12.5668 1.13727 11.8782 2.00574 11.8782C3.33323 11.8782 4.04861 13.3853 3.2331 14.3774Z" fill="#FF6D7A"/>
<path d="M11.9809 17.2362C11.5027 17.2362 11.1135 16.8555 11.1135 16.3874C11.1135 15.9194 11.5027 15.5386 11.9809 15.5386C12.4592 15.5386 12.8483 15.9194 12.8483 16.3874C12.8483 16.8555 12.4592 17.2362 11.9809 17.2362ZM11.9809 16.3869V16.3874C11.9809 16.387 11.9809 16.3869 11.9809 16.3869Z" fill="#E84857"/>
</g>
<path d="M11.5291 1V11.311H16.7695L12.6578 6.15551H16.7695L11.5291 1Z" fill="#FE4F60"/>
<path d="M11.5291 14.6253V11.311M11.5291 11.311V1L16.7695 6.15551H12.6578L16.7695 11.311H11.5291Z" stroke="#E84857" stroke-width="0.5"/>
<defs>
<clipPath id="clip0">
<rect width="25.1544" height="24.6152" fill="white" transform="translate(0 9.38483)"/>
</clipPath>
</defs>
</svg>
